<svg width="16" height="16" viewBox="0 0 16 16" fill="none" xmlns="http://www.w3.org/2000/svg">
<path fill-rule="evenodd" clip-rule="evenodd" d="M11.3333 3.3335V2.66683C11.3333 2.31321 11.1929 1.97407 10.9428 1.72402C10.6928 1.47397 10.3536 1.3335 10 1.3335H6C5.64638 1.3335 5.30724 1.47397 5.05719 1.72402C4.80714 1.97407 4.66667 2.31321 4.66667 2.66683V3.3335H2.66667C2.48986 3.3335 2.32029 3.40373 2.19526 3.52876C2.07024 3.65378 2 3.82335 2 4.00016C2 4.17697 2.07024 4.34654 2.19526 4.47157C2.32029 4.59659 2.48986 4.66683 2.66667 4.66683H3.33333V12.0002C3.33333 12.5306 3.54405 13.0393 3.91912 13.4144C4.29419 13.7894 4.8029 14.0002 5.33333 14.0002H10.6667C11.1971 14.0002 11.7058 13.7894 12.0809 13.4144C12.456 13.0393 12.6667 12.5306 12.6667 12.0002V4.66683H13.3333C13.5101 4.66683 13.6797 4.59659 13.8047 4.47157C13.9298 4.34654 14 4.17697 14 4.00016C14 3.82335 13.9298 3.65378 13.8047 3.52876C13.6797 3.40373 13.5101 3.3335 13.3333 3.3335H11.3333ZM10 2.66683H6V3.3335H10V2.66683ZM11.3333 4.66683H4.66667V12.0002C4.66667 12.177 4.7369 12.3465 4.86193 12.4716C4.98695 12.5966 5.15652 12.6668 5.33333 12.6668H10.6667C10.8435 12.6668 11.013 12.5966 11.1381 12.4716C11.2631 12.3465 11.3333 12.177 11.3333 12.0002V4.66683Z" fill="#FF0505"/>
<path d="M6 6H7.33333V11.3333H6V6ZM8.66667 6H10V11.3333H8.66667V6Z" fill="#FF0505"/>
</svg>
