<svg width="24" height="24" viewBox="0 0 24 24" fill="none" xmlns="http://www.w3.org/2000/svg">
<path fill-rule="evenodd" clip-rule="evenodd" d="M10.1144 0.799445C11.1558 -0.266482 12.8442 -0.266482 13.8856 0.799445L23.6095 10.7523C24.1302 11.2853 24.1302 12.1494 23.6095 12.6824C23.0888 13.2153 22.2446 13.2153 21.7239 12.6824L21.3333 12.2826V21.2705C21.3333 22.778 20.1394 24 18.6667 24H5.33333C3.86057 24 2.66667 22.778 2.66667 21.2705V12.2826L2.27614 12.6824C1.75544 13.2153 0.911223 13.2153 0.390524 12.6824C-0.130175 12.1494 -0.130175 11.2853 0.390524 10.7523L10.1144 0.799445ZM5.33333 9.55317V21.3333H18.6667V9.55317L12 2.72948L5.33333 9.55317Z" fill="#D9D9D9"/>
</svg>
