<svg width="24" height="24" viewBox="0 0 24 24" fill="none" xmlns="http://www.w3.org/2000/svg">
<path fill-rule="evenodd" clip-rule="evenodd" d="M5.25 3.75C5.25 3.41848 5.3817 3.10054 5.61612 2.86612C5.85054 2.6317 6.16848 2.5 6.5 2.5C6.83152 2.5 7.14946 2.6317 7.38388 2.86612C7.6183 3.10054 7.75 3.41848 7.75 3.75C7.75 4.08152 7.6183 4.39946 7.38388 4.63388C7.14946 4.8683 6.83152 5 6.5 5C6.16848 5 5.85054 4.8683 5.61612 4.63388C5.3817 4.39946 5.25 4.08152 5.25 3.75ZM6.5 0C5.50544 0 4.55161 0.395088 3.84835 1.09835C3.14509 1.80161 2.75 2.75544 2.75 3.75C2.75 4.74456 3.14509 5.69839 3.84835 6.40165C4.55161 7.10491 5.50544 7.5 6.5 7.5C7.49456 7.5 8.44839 7.10491 9.15165 6.40165C9.85491 5.69839 10.25 4.74456 10.25 3.75C10.25 2.75544 9.85491 1.80161 9.15165 1.09835C8.44839 0.395088 7.49456 0 6.5 0ZM12 11L12.6 10.2L13 10.5V18.5H11V24H2V18.5H0V10.5L0.4 10.2L0.401 10.199L0.403 10.198L0.407 10.195L0.417 10.188L0.445 10.168C0.468333 10.1507 0.499333 10.1293 0.538 10.104C0.616 10.0507 0.725 9.983 0.865 9.901C1.145 9.738 1.548 9.529 2.066 9.321C3.104 8.907 4.605 8.5 6.5 8.5C8.395 8.5 9.896 8.906 10.934 9.322C11.452 9.529 11.855 9.738 12.134 9.901C12.2776 9.98383 12.4177 10.0726 12.554 10.167L12.584 10.187L12.594 10.195L12.597 10.198H12.599V10.199C12.599 10.199 12.6 10.2 12 11ZM20.5 0L17 3.5V5H24V3.5L20.5 0ZM17 11.5L20.5 15L24 11.5V10H17V11.5Z" fill="white"/>
</svg>
